<?xml version="1.0" encoding="UTF-8" standalone="no"?>
<svg width="240px" height="240px" viewBox="0 0 240 240" version="1.1" xmlns="http://www.w3.org/2000/svg" xmlns:xlink="http://www.w3.org/1999/xlink" xmlns:sketch="http://www.bohemiancoding.com/sketch/ns">
    <!-- Generator: Sketch 3.3 (11970) - http://www.bohemiancoding.com/sketch -->
    <title>comment_phaze</title>
    <desc>Created with Sketch.</desc>
    <defs>
        <circle id="path-1" cx="110" cy="110" r="110"></circle>
    </defs>
    <g id="Page-1" stroke="none" stroke-width="1" fill="none" fill-rule="evenodd" sketch:type="MSPage">
        <g id="Oval-10-Copy-+-Group-+-Rectangle-4-+-Rectangle-4-Copy-2-+-Rectangle-6-+-Rectangle-7-Mask" sketch:type="MSLayerGroup">
            <circle id="Oval-10-Copy" fill="#3A9CBD" sketch:type="MSShapeGroup" cx="120" cy="120" r="120"></circle>
            <g id="Group-+-Rectangle-4-+-Rectangle-4-Copy-2-+-Rectangle-6-+-Rectangle-7-Mask" transform="translate(10.000000, 10.000000)">
                <mask id="mask-2" sketch:name="Mask" fill="white">
                    <use xlink:href="#path-1"></use>
                </mask>
                <use id="Mask" fill="#FEFEFE" sketch:type="MSShapeGroup" xlink:href="#path-1"></use>
                <g id="Group" mask="url(#mask-2)">
                    <g transform="translate(40.000000, 130.000000)">
                        <g id="Rectangle-1-+-Rectangle-4-+-Rectangle-4-Copy" stroke="none" stroke-width="1" fill-rule="evenodd" sketch:type="MSLayerGroup">
                            <rect id="Rectangle-1" fill="#80BBCF" sketch:type="MSShapeGroup" x="0" y="0" width="140" height="200" rx="10"></rect>
                            <g id="Rectangle-4-+-Rectangle-4-Copy" transform="translate(10.000000, 9.000000)" sketch:type="MSShapeGroup">
                                <rect id="Rectangle-4" fill="#E3F5FB" x="0" y="0" width="120" height="180"></rect>
                                <path d="M0,0 L120,0 L60,90 L0,180 L0,0 Z" id="Rectangle-4-Copy" fill="#B3DDEB" transform="translate(60.000000, 90.000000) scale(-1, -1) translate(-60.000000, -90.000000) "></path>
                            </g>
                        </g>
                        <path d="M21.5,40 L117.5,40" id="Line" stroke="#80BBCF" stroke-width="4" stroke-linecap="square" sketch:type="MSShapeGroup"></path>
                        <path d="M22.5,70 L117.5,70" id="Line-Copy" stroke="#80BBCF" stroke-width="4" stroke-linecap="square" sketch:type="MSShapeGroup"></path>
                        <path d="M21.5,100 L117.5,100" id="Line-Copy-2" stroke="#80BBCF" stroke-width="4" stroke-linecap="square" sketch:type="MSShapeGroup"></path>
                    </g>
                </g>
                <g id="Rectangle-4-+-Rectangle-4-Copy-2-+-Rectangle-6-+-Rectangle-7" mask="url(#mask-2)">
                    <g transform="translate(60.000000, 26.000000)">
                        <g id="Rectangle-4-+-Rectangle-4-Copy-2">
                            <path d="M0,8.00005106 C0,3.58174486 3.58853654,0 7.99335421,0 L92.0066458,0 C96.4212534,0 100,3.5797863 100,8.00005106 L100,71.9999489 C100,76.4182551 96.4216254,80 91.9988537,80 L50,80 L7.99883397,80 C3.58119995,80 0,76.4202137 0,71.9999489 L0,8.00005106 Z" id="Rectangle-4" fill="#80BBCF" sketch:type="MSShapeGroup"></path>
                            <polygon id="Triangle-1" fill="#80BBCF" sketch:type="MSShapeGroup" transform="translate(50.000000, 88.000000) scale(1, -1) translate(-50.000000, -88.000000) " points="50 80 60 96 40 96 "></polygon>
                            <rect id="Rectangle-4-Copy-2" fill="#E3F5FB" sketch:type="MSShapeGroup" x="8" y="8" width="84" height="64" rx="4"></rect>
                            <polygon id="Triangle-1-Copy" fill="#E3F5FB" sketch:type="MSShapeGroup" transform="translate(50.000000, 75.000000) scale(1, -1) translate(-50.000000, -75.000000) " points="50 67 60 83 40 83 "></polygon>
                        </g>
                        <g id="Rectangle-6-+-Rectangle-7" transform="translate(31.000000, 20.000000)">
                            <rect id="Rectangle-6" fill="#80BBCF" sketch:type="MSShapeGroup" x="0" y="16.4" width="12" height="20.4172539" rx="4"></rect>
                            <path d="M18.6101306,16.8705137 C17.3527556,17.5429185 16.5,18.8672301 16.5,20.3909907 L16.5,36.9097141 C16.5,39.1189389 18.2893488,40.9007047 20.4966224,40.9007047 L27.75,40.9007047 C33.9645695,40.9007047 39,35.8655009 39,29.6542623 L39,20.3909907 C39,18.1817658 37.2106512,16.4 35.0033776,16.4 L27.7995992,16.4 C27.9946525,15.979458 29.2860303,13.1338949 29.9724702,10.0636364 C30.2956615,8.61808989 29.3873368,4.49117912 29.3873368,4.49117912 C28.9987198,2.33206505 26.8749494,0.4201697 24.6785474,0.240097368 L25.7269377,0.326049799 C23.528334,0.145796963 21.6624339,1.78528619 21.5544156,3.98754832 C21.5544156,3.98754832 21.4442518,7.98030349 20.978466,10.0636364 C20.3772737,12.7526058 18.7589061,16.4330974 18.7589061,16.4330974 C18.6992825,16.581098 18.6497952,16.7270646 18.6101306,16.8705137 Z" id="Rectangle-7" fill="#80BBCF" sketch:type="MSShapeGroup"></path>
                        </g>
                    </g>
                </g>
            </g>
        </g>
    </g>
</svg>