<?xml version="1.0" encoding="UTF-8" standalone="no"?>
<svg width="240px" height="240px" viewBox="0 0 240 240" version="1.1" xmlns="http://www.w3.org/2000/svg" xmlns:xlink="http://www.w3.org/1999/xlink" xmlns:sketch="http://www.bohemiancoding.com/sketch/ns">
    <!-- Generator: Sketch 3.3 (11970) - http://www.bohemiancoding.com/sketch -->
    <title>cycle_phaze</title>
    <desc>Created with Sketch.</desc>
    <defs>
        <circle id="path-1" cx="110" cy="110" r="110"></circle>
    </defs>
    <g id="Page-1" stroke="none" stroke-width="1" fill="none" fill-rule="evenodd" sketch:type="MSPage">
        <g id="Oval-10-Copy-+-Group-+-Group-+-Rectangle-27-+-Star-1-Mask" sketch:type="MSLayerGroup">
            <circle id="Oval-10-Copy" fill="#3A9CBD" sketch:type="MSShapeGroup" cx="120" cy="120" r="120"></circle>
            <g id="Group-+-Group-+-Rectangle-27-+-Star-1-Mask" transform="translate(10.000000, 10.000000)">
                <mask id="mask-2" sketch:name="Mask" fill="white">
                    <use xlink:href="#path-1"></use>
                </mask>
                <use id="Mask" fill="#E3F5FB" sketch:type="MSShapeGroup" xlink:href="#path-1"></use>
                <rect id="Rectangle-31" fill="#FEFEFE" sketch:type="MSShapeGroup" mask="url(#mask-2)" x="-9" y="-10" width="234" height="154"></rect>
                <g mask="url(#mask-2)">
                    <g transform="translate(-41.000000, 44.000000)">
                        <g id="Group-+-Rectangle-27-+-Star-1" transform="translate(0.000000, 50.000000)">
                            <g id="Group" sketch:type="MSShapeGroup">
                                <rect id="Rectangle-40" fill="#80BBCF" x="0" y="0.358710406" width="93.0029122" height="54.0961561" rx="13.824"></rect>
                                <path d="M178.772265,9.37473643 L178.772265,0.358710406 L82.0230749,0.358710406 C74.3898928,0.358710406 68.2021356,6.54871952 68.2021356,14.1844827 L68.2021356,40.6290942 C68.2021356,48.2625333 74.3904692,54.4548665 82.0241655,54.4548665 L164.950235,54.4548665 C172.590608,54.4548665 178.772265,54.4548665 178.772265,54.4548665 C178.772265,54.4548665 178.772265,56.4361863 178.772265,54.4548665 L178.772265,45.4388405 L86.9167883,45.4388405 L86.9167883,9.37473643 L178.772265,9.37473643 Z" id="Rectangle-8" fill="#B3DDEB"></path>
                                <path d="M77.1579716,16.285587 C77.1579716,12.4688296 80.2518736,9.37473643 84.0716234,9.37473643 L173.605436,9.37473643 L173.605436,45.4388405 L84.074871,45.4388405 C80.254773,45.4388405 77.1579716,42.348445 77.1579716,38.5279899 L77.1579716,16.285587 Z" id="Rectangle-39" fill="#E3F5FB"></path>
                                <path d="M72.507826,0.358710406 L59.6433468,0.358710406 C52.0044617,0.358710406 45.8125457,6.54871952 45.8125457,14.1844827 L45.8125457,40.6290942 C45.8125457,48.2625333 52.0048062,54.4548665 59.6433468,54.4548665 L72.507826,54.4548665 L69.9770037,54.4548665 C62.3384631,54.4548665 56.1462026,48.2625333 56.1462026,40.6290942 L56.1462026,14.1844827 C56.1462026,6.54871952 62.3381186,0.358710406 69.9770037,0.358710406 L72.507826,0.358710406 Z" id="Rectangle-7-Copy-2" fill="#B3DDEB"></path>
                            </g>
                            <g id="Rectangle-27-+-Star-1" transform="translate(117.576667, 25.635294)" sketch:type="MSShapeGroup">
                                <path d="M14.528066,34.0839485 L5.04005169,34.0839485 L5.04005169,34.0839485 C5.0991833,33.804095 5.13029631,33.5139197 5.13029631,33.2164894 L5.13029631,5.13497156 C5.13029631,2.82447576 3.26028529,0.954575163 0.953509789,0.954575163 L21.1548364,0.954575163 C22.6852171,0.954575163 23.9258357,2.19282169 23.9258357,3.7221845 L23.9258357,34.0839485 L14.528066,34.0839485 L23.9258357,34.0839485 L14.528066,27.4580738 L5.13029631,34.0839485 L14.528066,34.0839485 Z" id="Rectangle-27" fill="#80BBCF"></path>
                                <polygon id="Star-1" fill="#E3F5FB" points="14.0805532 20.0039648 11.1870972 21.5395957 11.7396981 18.2870773 9.3988431 15.9836309 12.6338252 15.5090949 14.0805532 12.5498558 15.5272811 15.5090949 18.7622632 15.9836309 16.4214082 18.2870773 16.9740091 21.5395957 "></polygon>
                            </g>
                        </g>
                        <g id="Group" transform="translate(107.000000, 44.500000) scale(-1, 1) rotate(90.000000) translate(-107.000000, -44.500000) translate(100.000000, -1.000000)">
                            <rect id="Rectangle-15" fill="#B3DDEB" sketch:type="MSShapeGroup" x="0.054520326" y="16.3149351" width="13.496" height="74.6067111"></rect>
                            <path d="M6.84366667,0.248021714 L13.5916667,16.3149351 L0.0956666667,16.3149351 L6.84366667,0.248021714 Z" id="Triangle-37" fill="#E3F5FB" sketch:type="MSShapeGroup"></path>
                            <path d="M13.5710932,0.248021714 L13.5710932,16.3149351 L6.84366639,16.3149351 L13.5710932,0.248021714 Z" id="Triangle-37-Copy" fill="#B3DDEB" sketch:type="MSShapeGroup" transform="translate(10.207380, 8.281478) scale(-1, 1) translate(-10.207380, -8.281478) "></path>
                            <rect id="Rectangle-10-Copy-5" fill="#80BBCF" sketch:type="MSShapeGroup" x="6.84366667" y="16.3149351" width="6.72742681" height="74.6067111"></rect>
                            <path d="M6.84366667,0.248021714 L9.093,5.48873165 L4.59433333,5.48873165 L6.84366667,0.248021714 Z" id="Triangle-37-Copy-2" fill="#80BBCF" sketch:type="MSShapeGroup"></path>
                        </g>
                        <g id="Group" transform="translate(189.000000, 0.000000)">
                            <g id="Oval-2-+-Oval-2-Copy-2-+-Oval-2-Copy-3" transform="translate(8.600000, 0.000000)" sketch:type="MSShapeGroup">
                                <path d="M3.87508394,0.683673469 C3.83637539,0.779616076 3.79792993,0.875764031 3.75974881,0.972115738 C1.57108213,1.70976124 0,3.77962321 0,6.21773459 L0,22.4965511 C0,22.6941566 0.0103287291,22.8893256 0.0304748031,23.0815483 C0.79608429,46.7488421 15.8909414,65.6326531 34.4,65.6326531 C52.9089618,65.6326531 68.0037579,46.7490395 68.7695132,23.0819194 C68.7896682,22.8895611 68.8,22.6942669 68.8,22.4965511 L68.8,6.21773459 C68.8,3.77854357 67.2262332,1.71060092 65.0405059,0.972758463 C65.002241,0.876191607 64.9637107,0.779829406 64.9249161,0.683673469 L3.87508394,0.683673469 Z" id="Oval-2" fill="#80BBCF"></path>
                                <g id="Oval-2-Copy-2-+-Oval-2-Copy-3" transform="translate(4.763077, 4.785714)">
                                    <path d="M3.57334091,0.644230769 C3.4975032,0.832201289 3.42284825,1.02109495 3.34938881,1.21089529 C1.5198737,2.11306612 0.264615385,3.9983148 0.264615385,6.17787343 L0.264615385,18.4606666 C0.264615385,18.5121075 0.26531606,18.5633842 0.266708373,18.6144875 C0.456525187,39.3594146 13.5333112,56.1006672 29.6369231,56.1006672 C45.7404733,56.1006672 58.8172207,39.3595429 59.0071356,18.6147261 L59.0071356,18.6147261 C59.0085294,18.5635435 59.0092308,18.5121873 59.0092308,18.4606666 L59.0092308,6.17787343 C59.0092308,3.99912597 57.7522962,2.11507475 55.9250492,1.21242449 C55.8513982,1.0221078 55.7765453,0.832702633 55.7005032,0.644225592 L3.57334091,0.644230769 Z" id="Oval-2-Copy-2" fill="#E3F5FB"></path>
                                    <path d="M4.10060713,36.9183758 C9.15563531,48.3757289 18.697943,56.1006672 29.6369231,56.1006672 C40.5759058,56.1006672 50.1182155,48.3757252 55.1732427,36.9183673 L4.10060341,36.9183673 Z" id="Oval-2-Copy-3" fill="#B3DDEB"></path>
                                </g>
                            </g>
                            <g id="Oval-2-+-Oval-2-Copy-2-+-Oval-2-Copy-3-Copy" transform="translate(43.068254, 101.183673) scale(1, -1) translate(-43.068254, -101.183673) translate(8.600000, 68.367347)" sketch:type="MSShapeGroup">
                                <path d="M3.87508394,0.683673469 C3.83637539,0.779616076 3.79792993,0.875764031 3.75974881,0.972115738 C1.57108213,1.70976124 0,3.77962321 0,6.21773459 L0,22.4965511 C0,22.6941566 0.0103287291,22.8893256 0.0304748031,23.0815483 C0.79608429,46.7488421 15.8909414,65.6326531 34.4,65.6326531 C52.9089618,65.6326531 68.0037579,46.7490395 68.7695132,23.0819194 L68.7695132,23.0819194 C68.7896682,22.8895611 68.8,22.6942669 68.8,22.4965511 L68.8,6.21773459 C68.8,3.77854357 67.2262332,1.71060092 65.0405059,0.972758463 C65.002241,0.876191607 64.9637107,0.779829406 64.9249161,0.683673469 L3.87508394,0.683673469 Z" id="Oval-2" fill="#80BBCF"></path>
                                <g id="Oval-2-Copy-2-+-Oval-2-Copy-3" transform="translate(4.763077, 4.785714)" fill="#E3F5FB">
                                    <path d="M3.57334091,0.644230769 C3.4975032,0.832201289 3.42284825,1.02109495 3.34938881,1.21089529 C1.5198737,2.11306612 0.264615385,3.9983148 0.264615385,6.17787343 L0.264615385,18.4606666 C0.264615385,18.5121075 0.26531606,18.5633842 0.266708373,18.6144875 C0.456525187,39.3594146 13.5333112,56.1006672 29.6369231,56.1006672 C45.7404733,56.1006672 58.8172207,39.3595429 59.0071356,18.6147261 L59.0071356,18.6147261 C59.0085294,18.5635435 59.0092308,18.5121873 59.0092308,18.4606666 L59.0092308,6.17787343 C59.0092308,3.99912597 57.7522962,2.11507475 55.9250492,1.21242449 C55.8513982,1.0221078 55.7765453,0.832702633 55.7005032,0.644225592 L3.57334091,0.644230769 Z" id="Oval-2-Copy-2"></path>
                                </g>
                                <path d="M4.91428571,22.1259613 L4.91428571,10.0711123 C4.91428571,7.88954209 6.18052093,6.00326915 8.01468159,5.10505098 C8.08722721,4.91774404 8.16093281,4.73131727 8.23578624,4.54578637 L8.23578624,4.54578637 L60.5642138,4.54578637 C60.6389158,4.73094197 60.7124746,4.91698982 60.7848781,5.10391431 C62.620989,6.00192005 63.8857143,7.88947455 63.8857143,10.0711123 L63.8857143,22.1259613 L4.91428571,22.1259613 Z" id="Oval-2-Copy-4" fill="#B3DDEB"></path>
                            </g>
                            <path d="M36.8571429,60.1632653 L49.1428571,60.1632653 L49.1428571,66.3163265 L49.1428571,72.4693878 L36.8571429,72.4693878 L36.8571429,60.1632653 Z" id="Rectangle-17" fill="#80BBCF" sketch:type="MSShapeGroup"></path>
                            <rect id="Rectangle-17-Copy" fill="#B3DDEB" sketch:type="MSShapeGroup" x="40.5428571" y="60.1632653" width="4.91428571" height="68.3673469"></rect>
                            <rect id="Rectangle-19" fill="#80BBCF" sketch:type="MSShapeGroup" x="0" y="0" width="86" height="12.3061224" rx="2.7648"></rect>
                            <rect id="Rectangle-19-Copy" fill="#80BBCF" sketch:type="MSShapeGroup" x="0" y="121.693878" width="86" height="12.3061224" rx="2.7648"></rect>
                        </g>
                    </g>
                </g>
            </g>
        </g>
    </g>
</svg>