<?xml version="1.0" encoding="UTF-8" standalone="no"?>
<svg width="188px" height="188px" viewBox="0 0 188 188" version="1.1" xmlns="http://www.w3.org/2000/svg" xmlns:xlink="http://www.w3.org/1999/xlink" xmlns:sketch="http://www.bohemiancoding.com/sketch/ns">
    <!-- Generator: Sketch 3.3 (11970) - http://www.bohemiancoding.com/sketch -->
    <title>grayish_pen_mark</title>
    <desc>Created with Sketch.</desc>
    <defs>
        <circle id="path-1" cx="90" cy="90" r="90"></circle>
    </defs>
    <g id="Page-1" stroke="none" stroke-width="1" fill="none" fill-rule="evenodd" sketch:type="MSPage">
        <g id="Oval-10-+-Oval-11-+-Polygon-1-+-Polygon-1-Copy-+-Group" sketch:type="MSLayerGroup" transform="translate(4.000000, 4.000000)">
            <g id="Oval-10-+-Oval-11" stroke="#9A9E9F" stroke-width="8" sketch:type="MSShapeGroup">
                <path d="M90,180 C139.705627,180 180,139.705627 180,90 C180,40.2943725 139.705627,0 90,0 C40.2943725,0 0,40.2943725 0,90 C0,139.705627 40.2943725,180 90,180 Z M90,160 C128.659932,160 160,128.659932 160,90 C160,51.3400675 128.659932,20 90,20 C51.3400675,20 20,51.3400675 20,90 C20,128.659932 51.3400675,160 90,160 Z" id="Oval-10"></path>
            </g>
            <g id="Polygon-1-+-Polygon-1-Copy-+-Group">
                <mask id="mask-2" sketch:name="Mask" fill="white">
                    <use xlink:href="#path-1"></use>
                </mask>
                <use id="Mask" sketch:type="MSShapeGroup" xlink:href="#path-1"></use>
                <g mask="url(#mask-2)">
                    <g transform="translate(63.000000, -9.000000)">
                        <g id="Polygon-1-+-Polygon-1-Copy" transform="translate(0.000000, 66.000000)">
                            <path d="M30.2607562,75.1195888 L54.0677966,38.5456352 L43.6531304,0 L10.4146662,0 L0,38.5456352 L23.8070404,75.1195888 L23.8070404,37.6831882 C21.2632376,36.5296338 19.5045632,34.0548254 19.5045632,31.187966 C19.5045632,27.2186826 22.8758592,24.0009426 27.0345634,24.0009426 C31.1932677,24.0009426 34.5645637,27.2186826 34.5645637,31.187966 C34.5645637,34.0553252 32.8052761,36.5304965 30.2607562,37.6837913 L30.2607562,75.1195888 Z" id="Polygon-1" stroke="#9A9E9F" stroke-width="4" sketch:type="MSShapeGroup"></path>
                        </g>
                        <g id="Group" transform="translate(7.000000, 0.000000)">
                            <path d="M0,0 L40,0 L40,68 L0,68 L0,0 Z M3,45.2615385 L36.9293139,45.2615385 L36.9293139,55.7215385 L3,55.7215385 L3,45.2615385 Z" id="Rectangle-2-Copy" stroke="#9A9E9F" stroke-width="4" fill="#9A9E9F" sketch:type="MSShapeGroup"></path>
                        </g>
                    </g>
                </g>
            </g>
        </g>
    </g>
</svg>