<?xml version="1.0" encoding="UTF-8" standalone="no"?>
<svg width="497px" height="187px" viewBox="0 0 497 187" version="1.1" xmlns="http://www.w3.org/2000/svg" xmlns:xlink="http://www.w3.org/1999/xlink" xmlns:sketch="http://www.bohemiancoding.com/sketch/ns">
    <!-- Generator: Sketch 3.3 (11970) - http://www.bohemiancoding.com/sketch -->
    <title>stationery</title>
    <desc>Created with Sketch.</desc>
    <defs></defs>
    <g id="Page-1" stroke="none" stroke-width="1" fill="none" fill-rule="evenodd" sketch:type="MSPage">
        <g id="Group-+-Group-+-Group-+-Group" sketch:type="MSLayerGroup">
            <g id="Group" transform="translate(224.431250, 15.834677) scale(1, -1) rotate(-90.000000) translate(-224.431250, -15.834677) translate(209.368750, -79.927419)" sketch:type="MSShapeGroup">
                <rect id="Rectangle-15" fill="#B3DDEB" x="1.11682927" y="34.2434352" width="28.92" height="156.592108"></rect>
                <polygon id="Triangle-37" fill="#E3F5FB" points="15.665 0.520573048 30.125 34.2434352 1.205 34.2434352 "></polygon>
                <polygon id="Triangle-37-Copy" fill="#B3DDEB" transform="translate(22.872957, 17.382004) scale(-1, 1) translate(-22.872957, -17.382004) " points="30.0809146 0.520573048 30.0809146 34.2434352 15.665 34.2434352 "></polygon>
                <rect id="Rectangle-10-Copy-5" fill="#80BBCF" x="15.665" y="34.2434352" width="14.4159146" height="156.592108"></rect>
                <polygon id="Triangle-37-Copy-2" fill="#80BBCF" points="15.665 0.520573048 20.485 11.5203049 10.845 11.5203049 "></polygon>
            </g>
            <g id="Group" transform="translate(354.412500, 95.008065)" sketch:type="MSShapeGroup">
                <rect id="Rectangle-4" fill="#B3DDEB" x="38.822379" y="69.8672928" width="45.6733871" height="20.6165782" rx="5"></rect>
                <path d="M115.325302,67.5765619 C129.829514,67.5765619 141.5875,55.7822175 141.5875,41.2331564 C141.5875,26.6840953 129.829514,14.8897509 115.325302,14.8897509 C100.821091,14.8897509 89.0631048,26.6840953 89.0631048,41.2331564 C89.0631048,55.7822175 100.821091,67.5765619 115.325302,67.5765619 Z M115.325302,56.2865309 C123.613423,56.2865309 130.332272,49.5469056 130.332272,41.2331564 C130.332272,32.9194072 123.613423,26.1797818 115.325302,26.1797818 C107.037182,26.1797818 100.318332,32.9194072 100.318332,41.2331564 C100.318332,49.5469056 107.037182,56.2865309 115.325302,56.2865309 Z" id="Oval-2" fill="#B3DDEB"></path>
                <path d="M122.17631,26.9160882 L122.17631,4.99145693 C122.17631,2.24225086 119.938599,0 117.178242,0 L4.9980684,0 C2.2380958,0 0,2.23475139 0,4.99145693 L0,26.9160676 C-6.21724894e-15,60.7584695 27.3500987,88.1931401 61.0881552,88.1931401 C94.8262118,88.1931401 122.17631,60.7584695 122.17631,26.9160882 Z" id="Rectangle-2" fill="#B3DDEB"></path>
                <path d="M32.9471483,81.3183651 C13.3708145,71.1084834 -4.96809264e-15,50.5785694 0,26.9160676 L0,4.99145693 C0,2.23475139 2.2380958,0 4.9980684,0 L44.906548,0 L84.8150276,0 C87.5788579,0 89.8193849,2.23812124 89.8193849,5.00092156 L89.8193849,24.8187307 C89.8193849,56.0240433 64.6004627,81.3209473 33.4913457,81.3209473 C33.3097446,81.3209473 33.1283441,81.3200853 32.9471483,81.3183651 Z" id="Rectangle-2-Copy-2" fill="#E3F5FB"></path>
            </g>
            <g id="Group-+-Group" transform="translate(0.000000, 30.161290)" sketch:type="MSShapeGroup">
                <g id="Group" transform="translate(0.314147, 76.972070)">
                    <rect id="Rectangle-40" fill="#80BBCF" x="0" y="0.509330585" width="174.249335" height="76.8107821" rx="16"></rect>
                    <path d="M127.782846,16.5178904 C127.782846,7.67660693 134.945162,0.509330585 143.778846,0.509330585 L334.945945,0.509330585 L334.945945,77.3201127 C334.945945,80.1333758 334.945945,77.3201127 334.945945,77.3201127 C334.945945,77.3201127 327.78487,77.3201127 318.948485,77.3201127 L143.780306,77.3201127 C134.945153,77.3201127 127.782846,70.1629162 127.782846,61.3115529 L127.782846,16.5178904 Z M160.696609,13.3111276 L334.945945,13.3111276 L334.945945,64.5183157 L160.696609,64.5183157 L160.696609,13.3111276 Z" id="Rectangle-8" fill="#B3DDEB"></path>
                    <path d="M144.562412,21.3122507 C144.562412,16.8933525 148.148456,13.3111276 152.567814,13.3111276 L325.265426,13.3111276 L325.265426,64.5183157 L152.560157,64.5183157 C148.143124,64.5183157 144.562412,60.9378782 144.562412,56.5171926 L144.562412,21.3122507 Z" id="Rectangle-39" fill="#E3F5FB"></path>
                    <path d="M50.0160129,0.509330585 L15.9982504,0.509330585 C7.15901209,0.509330585 0,7.67660693 0,16.5178904 L0,61.3115529 C0,70.1629162 7.16266067,77.3201127 15.9982504,77.3201127 L50.0160129,77.3201127 L35.3592876,77.3201127 C26.5236979,77.3201127 19.3610373,70.1629162 19.3610373,61.3115529 L19.3610373,16.5178904 C19.3610373,7.67660693 26.5200494,0.509330585 35.3592876,0.509330585 L50.0160129,0.509330585 Z" id="Rectangle-7" fill="#B3DDEB"></path>
                    <path d="M135.849945,0.509330585 L101.832182,0.509330585 C92.992944,0.509330585 85.8339319,7.67660693 85.8339319,16.5178904 L85.8339319,61.3115529 C85.8339319,70.1629162 92.9965925,77.3201127 101.832182,77.3201127 L135.849945,77.3201127 L121.19322,77.3201127 C112.35763,77.3201127 105.194969,70.1629162 105.194969,61.3115529 L105.194969,16.5178904 C105.194969,7.67660693 112.353981,0.509330585 121.19322,0.509330585 L135.849945,0.509330585 Z" id="Rectangle-7-Copy-2" fill="#B3DDEB"></path>
                </g>
                <g id="Group" transform="translate(40.326958, 0.349646)">
                    <rect id="Rectangle-40" fill="#80BBCF" x="0" y="0.509330585" width="174.249335" height="76.8107821" rx="16"></rect>
                    <path d="M127.782846,16.5178904 C127.782846,7.67660693 134.945162,0.509330585 143.778846,0.509330585 L334.945945,0.509330585 L334.945945,77.3201127 C334.945945,80.1333758 334.945945,77.3201127 334.945945,77.3201127 C334.945945,77.3201127 327.78487,77.3201127 318.948485,77.3201127 L143.780306,77.3201127 C134.945153,77.3201127 127.782846,70.1629162 127.782846,61.3115529 L127.782846,16.5178904 Z M160.696609,13.3111276 L334.945945,13.3111276 L334.945945,64.5183157 L160.696609,64.5183157 L160.696609,13.3111276 Z" id="Rectangle-8" fill="#B3DDEB"></path>
                    <path d="M144.562412,21.3122507 C144.562412,16.8933525 148.148456,13.3111276 152.567814,13.3111276 L325.265426,13.3111276 L325.265426,64.5183157 L152.560157,64.5183157 C148.143124,64.5183157 144.562412,60.9378782 144.562412,56.5171926 L144.562412,21.3122507 Z" id="Rectangle-39" fill="#E3F5FB"></path>
                    <path d="M50.0160129,0.509330585 L15.9982504,0.509330585 C7.15901209,0.509330585 0,7.67660693 0,16.5178904 L0,61.3115529 C0,70.1629162 7.16266067,77.3201127 15.9982504,77.3201127 L50.0160129,77.3201127 L35.3592876,77.3201127 C26.5236979,77.3201127 19.3610373,70.1629162 19.3610373,61.3115529 L19.3610373,16.5178904 C19.3610373,7.67660693 26.5200494,0.509330585 35.3592876,0.509330585 L50.0160129,0.509330585 Z" id="Rectangle-7" fill="#B3DDEB"></path>
                    <path d="M135.849945,0.509330585 L101.832182,0.509330585 C92.992944,0.509330585 85.8339319,7.67660693 85.8339319,16.5178904 L85.8339319,61.3115529 C85.8339319,70.1629162 92.9965925,77.3201127 101.832182,77.3201127 L135.849945,77.3201127 L121.19322,77.3201127 C112.35763,77.3201127 105.194969,70.1629162 105.194969,61.3115529 L105.194969,16.5178904 C105.194969,7.67660693 112.353981,0.509330585 121.19322,0.509330585 L135.849945,0.509330585 Z" id="Rectangle-7-Copy-2" fill="#B3DDEB"></path>
                </g>
            </g>
        </g>
    </g>
</svg>